Land_normalized_Motion_pl03
version=1
nRows=21
nColumns=43
inDegrees=yes
endheader
time		pelvis_tilt		pelvis_list		pelvis_rotation		pelvis_tx		pelvis_ty		pelvis_tz		hip_flexion_r		hip_adduction_r		hip_rotation_r		knee_angle_r		ankle_angle_r		subtalar_angle_r		mtp_angle_r		hip_flexion_l		hip_adduction_l		hip_rotation_l		knee_angle_l		ankle_angle_l		subtalar_angle_l		mtp_angle_l		lumbar_extension		lumbar_bending		lumbar_rotation		neck_flexion		neck_lateral_bending		neck_rotation		arm_flex_r		arm_add_r		arm_rot_r		elbow_flex_r		pro_sup_r		wrist_flex_r		wrist_dev_r		hand_finger_flex_r		arm_flex_l		arm_add_l		arm_rot_l		elbow_flex_l		pro_sup_l		wrist_flex_l		wrist_dev_l		hand_finger_flex_l		
3.150126		1.311816		3.416321		93.231437		-0.014742		0.504869		0.490146		80.781780		-1.453960		2.216950		-118.796698		4.469914		2.657417		31.550040		78.585622		-5.457837		3.598261		-120.347749		23.956519		4.563631		22.162350		-49.567164		-1.703654		1.125960		11.825930		4.430002		-5.525494		22.700595		-21.467908		-3.615136		54.524133		121.383970		-19.354856		-17.950774		-30.701166		26.114812		-32.643389		2.305811		75.006947		141.806204		-37.152383		-12.536281		-10.935364		
3.152879		1.256850		3.442551		93.354766		-0.014667		0.499989		0.489541		81.517710		-1.676561		2.398756		-119.724413		4.231166		3.088054		31.565382		79.241247		-5.361671		3.667363		-121.191481		23.951415		4.707845		22.239171		-49.883247		-1.684164		1.017556		11.977697		4.467364		-5.478044		24.556481		-21.885223		-2.876827		55.239929		121.502460		-19.322811		-18.193080		-30.748414		29.019105		-32.943895		3.960615		74.975670		141.918230		-36.557812		-12.257972		-10.575868		
3.155631		1.071464		3.528489		93.620236		-0.014839		0.495241		0.489033		82.193035		-2.121393		2.671562		-120.666585		4.231909		3.643031		31.599749		79.831238		-5.084992		3.613886		-122.011009		23.852728		4.911131		22.398196		-50.233535		-1.752492		1.161831		11.832082		4.819647		-5.815384		26.034839		-22.563518		-2.375403		56.062030		121.315158		-19.760203		-18.384673		-31.059185		32.566877		-32.966806		6.528664		74.710215		141.848544		-36.032822		-11.377220		-10.122126		
3.158384		1.127260		3.489598		93.579579		-0.014235		0.490561		0.488404		82.940242		-2.129994		2.679085		-121.476738		4.087938		3.990226		31.611214		80.553861		-5.312035		3.698786		-122.796281		23.896428		4.908170		22.459492		-50.529823		-1.755930		1.065134		12.383489		4.620683		-5.719891		28.108880		-22.818808		-1.532468		56.638519		121.430295		-19.540385		-18.623510		-31.003063		35.192825		-33.264898		7.718201		74.764539		142.106493		-35.539453		-11.445585		-9.903166		
3.161136		1.086429		3.626350		93.729319		-0.014095		0.486154		0.487895		83.481317		-2.407675		2.740572		-122.305251		4.219896		4.485552		31.646863		81.103679		-5.307284		3.713762		-123.598089		23.834006		5.000380		22.637963		-50.958377		-1.767077		1.224216		12.587768		4.848087		-5.960517		29.847796		-23.474614		-0.770420		57.276212		121.030654		-19.831749		-18.820680		-31.308900		38.529812		-33.215410		9.927244		74.437238		142.191033		-35.146892		-10.905634		-9.666145		
3.163889		1.056304		3.748710		93.852440		-0.013904		0.481803		0.487355		84.013738		-2.664554		2.767137		-123.102779		4.407859		4.938424		31.686141		81.654653		-5.369085		3.713656		-124.375644		23.806690		5.083652		22.835621		-51.374186		-1.792935		1.422792		12.799070		5.078324		-6.252024		31.568841		-24.148324		-0.027152		57.918134		120.561001		-20.108880		-19.006123		-31.630255		41.830920		-33.078219		12.098856		74.093838		142.271012		-34.855109		-10.399545		-9.461471		
3.166641		1.122742		3.888047		94.029863		-0.013755		0.477461		0.486911		84.485360		-2.966175		2.658947		-123.862304		4.563702		5.300750		31.709887		82.216884		-5.443966		3.820195		-125.118294		23.796201		5.263971		22.955667		-51.777978		-1.658211		1.381806		12.858353		5.270710		-6.159645		33.618244		-24.715402		1.007005		58.358023		120.431453		-19.973982		-19.168382		-31.761546		44.745432		-33.045736		13.616963		73.852382		142.453250		-34.374122		-10.423695		-9.252205		
3.169394		1.208428		3.926906		94.062105		-0.013587		0.472905		0.486405		85.088859		-3.141504		2.560703		-124.599235		4.790234		5.587093		31.726131		82.864064		-5.675353		3.867678		-125.896772		23.906371		5.377763		23.047259		-52.053991		-1.589208		1.401518		13.191532		5.279999		-6.072317		35.749485		-25.154206		1.910047		58.632821		120.377699		-19.784571		-19.261714		-31.834296		47.418501		-32.921027		14.875776		73.693198		142.637477		-33.913050		-10.516719		-9.080328		
3.172146		1.288141		3.901128		94.060762		-0.013362		0.468343		0.485743		85.724310		-3.316826		2.446725		-125.324780		4.957155		5.850771		31.735020		83.539972		-5.978425		3.909501		-126.645989		24.089301		5.511752		23.110028		-52.267638		-1.526792		1.415686		13.530963		5.266643		-5.956194		37.942712		-25.593754		2.914681		58.832702		120.449889		-19.506546		-19.329405		-31.843730		50.042838		-32.839845		16.054270		73.526443		142.866632		-33.389314		-10.709377		-8.922018		
3.174899		1.365052		3.902937		94.073519		-0.013106		0.463846		0.485201		86.310670		-3.526478		2.302153		-126.025774		5.138287		6.115902		31.744037		84.161767		-6.284308		3.947922		-127.342415		24.334146		5.738064		23.180162		-52.474624		-1.483326		1.460610		13.704644		5.379483		-5.879534		40.131645		-26.023465		3.926302		58.958925		120.450240		-19.310703		-19.310404		-31.927637		52.735635		-32.636972		17.310296		73.228528		143.048690		-32.917641		-10.850249		-8.808335		
3.177652		1.402156		4.161037		94.156014		-0.012446		0.459929		0.484821		86.565225		-3.786608		2.076490		-126.698029		5.414356		6.400756		31.779484		84.447072		-6.657440		4.060240		-127.977090		24.812398		6.620375		23.395299		-52.876540		-1.614992		1.797353		13.242954		6.122424		-6.207126		42.019868		-26.843337		5.226207		59.141912		119.500210		-19.973414		-18.953392		-32.925454		56.284198		-32.033216		19.823407		72.101981		142.734147		-33.240682		-10.611743		-9.118890		
3.180404		1.443433		3.901328		93.911058		-0.012127		0.455183		0.484305		87.448314		-3.865390		2.008738		-127.328496		5.429571		6.622978		31.787771		85.254498		-7.192167		4.045860		-128.617379		25.118175		6.732310		23.457272		-52.841116		-1.738609		1.939369		13.833096		5.975602		-6.149265		44.243997		-27.200395		6.026073		59.170402		119.557679		-19.601829		-18.954002		-32.897280		58.636802		-31.719721		20.687205		71.871462		142.892221		-32.913714		-10.848608		-9.048330		
3.183157		1.432029		3.695215		93.728828		-0.011558		0.450588		0.483933		88.262778		-4.009997		1.934392		-127.947356		5.461688		6.848627		31.805672		85.982116		-7.713847		4.030395		-129.203594		25.520932		7.243944		23.572708		-52.783357		-1.962760		2.085332		13.898694		6.230887		-6.193259		46.393890		-27.614586		7.011495		59.084613		119.435326		-19.428813		-18.835844		-33.126543		61.322246		-31.243929		22.036286		71.184733		142.918728		-32.858003		-11.041095		-9.162704		
3.185909		1.343316		3.582659		93.552177		-0.010945		0.446264		0.483619		88.968983		-4.215782		1.947575		-128.556843		5.566603		6.987326		31.838055		86.570609		-8.243878		4.043228		-129.770911		25.977293		8.110379		23.752353		-52.815722		-2.295750		2.301260		13.440166		6.809986		-6.388730		48.287480		-28.036636		7.765499		59.140035		118.947591		-19.712893		-18.654648		-33.784176		64.099913		-30.539963		23.612784		70.287969		142.636606		-33.446060		-11.132696		-9.598239		
3.188662		1.324530		3.238842		93.281024		-0.010399		0.441841		0.483415		89.910173		-4.368808		1.868510		-129.088634		5.530859		7.375356		31.845210		87.413754		-8.801532		4.028904		-130.281563		26.232313		8.315250		23.806293		-52.706829		-2.536545		2.409402		13.746678		6.842303		-6.390109		50.432075		-28.278814		8.457013		59.100337		119.145982		-19.327017		-18.690737		-33.711061		66.362415		-30.074482		24.306561		69.962197		142.791464		-33.162175		-11.361328		-9.576367		
3.191414		1.287114		2.717426		92.960286		-0.009487		0.437295		0.483326		91.082840		-4.425432		1.752037		-129.593686		5.564162		7.938238		31.856225		88.417341		-9.467970		3.959615		-130.754502		26.555093		8.692976		23.884058		-52.335319		-2.891838		2.562551		14.422764		6.901957		-6.383103		52.815808		-28.567606		9.521645		58.503020		119.409589		-18.725808		-18.586568		-33.610148		69.022076		-29.501782		25.486388		68.943221		142.995285		-32.687645		-11.597712		-9.544404		
3.194167		1.217419		2.281258		92.660255		-0.008758		0.433097		0.483254		92.137641		-4.511393		1.737575		-130.064147		5.728201		8.403316		31.863893		89.300787		-10.025507		3.967010		-131.198486		26.804710		9.036200		23.943565		-52.093001		-3.227766		2.677503		14.859763		6.987801		-6.382380		55.034722		-28.599036		10.094377		58.048506		119.603223		-18.335989		-18.457322		-33.553709		71.352978		-28.792555		26.226027		68.158181		143.112505		-32.393777		-11.718681		-9.580818		
3.196919		0.839969		1.899430		92.460183		-0.007943		0.428742		0.483151		93.238384		-4.650091		2.070651		-130.647096		5.949393		9.071803		31.906670		90.019626		-10.413140		3.832176		-131.617352		27.267534		10.366722		24.163809		-51.792030		-3.928575		2.774409		14.394876		7.956400		-6.702458		56.911214		-29.011500		10.700744		57.468059		119.981602		-18.256153		-18.464308		-34.160113		74.462523		-27.820274		28.456850		66.349668		142.814604		-33.287025		-12.130054		-10.587869		
3.199672		0.726432		1.487126		92.204321		-0.007243		0.424791		0.483036		94.219590		-4.681402		2.171381		-131.087958		6.096082		9.544205		31.924621		90.834639		-10.940068		3.801768		-132.014409		27.530852		10.746821		24.253040		-51.589518		-4.283480		2.864126		14.840823		8.095317		-6.787409		58.917836		-28.987727		11.036220		57.117422		120.192503		-17.948138		-18.371744		-34.282408		76.780275		-27.039805		29.290341		65.388841		142.725725		-33.274632		-12.239941		-10.855304		
3.202424		0.611390		1.090760		91.999943		-0.006828		0.420846		0.483011		95.147813		-4.709041		2.322821		-131.521328		6.024579		10.189491		31.942563		91.621553		-11.239860		3.854047		-132.414672		27.761828		11.109836		24.329923		-51.407461		-4.611277		2.939160		15.147183		8.378310		-6.958031		61.094440		-29.254253		11.739999		56.621279		120.630057		-17.238437		-18.259937		-34.219371		79.232258		-26.467180		30.472692		64.575267		142.843077		-32.896198		-12.554554		-10.985089		
3.205177		0.498166		0.769616		91.880928		-0.006354		0.417160		0.482804		95.948440		-4.722287		2.550867		-131.952875		6.247186		10.612975		31.960610		92.304901		-11.570800		3.879027		-132.794909		28.045921		11.510243		24.404062		-51.264504		-4.881196		2.923464		15.557251		8.593538		-7.020316		63.146416		-29.137184		12.028905		56.041205		120.926165		-16.707006		-18.004575		-34.239321		81.474138		-25.664442		31.274840		63.574517		142.808059		-32.619006		-12.608960		-11.188947		
